<mxfile host="app.diagrams.net" modified="2023-06-15T16:29:46.394Z" agent="Mozilla/5.0 (Windows NT 10.0; Win64; x64) AppleWebKit/537.36 (KHTML, like Gecko) Chrome/113.0.0.0 Safari/537.36" etag="ipyPonsLe-0lgqjQm_SL" version="21.4.0" type="github">
  <diagram name="Page-1" id="hhnrzE7MoxYHYfj6DHKl">
    <mxGraphModel dx="988" dy="476" grid="1" gridSize="10" guides="1" tooltips="1" connect="1" arrows="1" fold="1" page="1" pageScale="1" pageWidth="850" pageHeight="1100" math="0" shadow="0">
      <root>
        <mxCell id="0" />
        <mxCell id="1" parent="0" />
        <mxCell id="ATrKAvhcQLNvLvAztBjA-5" style="edgeStyle=orthogonalEdgeStyle;rounded=0;orthogonalLoop=1;jettySize=auto;html=1;entryX=0;entryY=0.5;entryDx=0;entryDy=0;" edge="1" parent="1" source="ATrKAvhcQLNvLvAztBjA-1" target="ATrKAvhcQLNvLvAztBjA-2">
          <mxGeometry relative="1" as="geometry" />
        </mxCell>
        <mxCell id="ATrKAvhcQLNvLvAztBjA-14" style="edgeStyle=orthogonalEdgeStyle;rounded=0;orthogonalLoop=1;jettySize=auto;html=1;entryX=0.5;entryY=1;entryDx=0;entryDy=0;" edge="1" parent="1" source="ATrKAvhcQLNvLvAztBjA-1" target="ATrKAvhcQLNvLvAztBjA-15">
          <mxGeometry relative="1" as="geometry">
            <mxPoint x="220" y="180" as="targetPoint" />
          </mxGeometry>
        </mxCell>
        <mxCell id="ATrKAvhcQLNvLvAztBjA-1" value="PEMS&lt;br&gt;PMD" style="whiteSpace=wrap;html=1;aspect=fixed;" vertex="1" parent="1">
          <mxGeometry x="180" y="340" width="80" height="80" as="geometry" />
        </mxCell>
        <mxCell id="ATrKAvhcQLNvLvAztBjA-6" style="edgeStyle=orthogonalEdgeStyle;rounded=0;orthogonalLoop=1;jettySize=auto;html=1;entryX=1;entryY=0.75;entryDx=0;entryDy=0;" edge="1" parent="1" source="ATrKAvhcQLNvLvAztBjA-2" target="ATrKAvhcQLNvLvAztBjA-1">
          <mxGeometry relative="1" as="geometry">
            <Array as="points">
              <mxPoint x="370" y="400" />
              <mxPoint x="370" y="400" />
            </Array>
          </mxGeometry>
        </mxCell>
        <mxCell id="ATrKAvhcQLNvLvAztBjA-13" style="edgeStyle=orthogonalEdgeStyle;rounded=0;orthogonalLoop=1;jettySize=auto;html=1;entryX=0.5;entryY=1;entryDx=0;entryDy=0;" edge="1" parent="1" source="ATrKAvhcQLNvLvAztBjA-2" target="ATrKAvhcQLNvLvAztBjA-16">
          <mxGeometry relative="1" as="geometry">
            <mxPoint x="450" y="210" as="targetPoint" />
          </mxGeometry>
        </mxCell>
        <mxCell id="ATrKAvhcQLNvLvAztBjA-2" value="SCADA" style="whiteSpace=wrap;html=1;aspect=fixed;" vertex="1" parent="1">
          <mxGeometry x="410" y="340" width="80" height="80" as="geometry" />
        </mxCell>
        <mxCell id="ATrKAvhcQLNvLvAztBjA-7" style="edgeStyle=orthogonalEdgeStyle;rounded=0;orthogonalLoop=1;jettySize=auto;html=1;entryX=0.5;entryY=1;entryDx=0;entryDy=0;" edge="1" parent="1" source="ATrKAvhcQLNvLvAztBjA-4" target="ATrKAvhcQLNvLvAztBjA-1">
          <mxGeometry relative="1" as="geometry" />
        </mxCell>
        <mxCell id="ATrKAvhcQLNvLvAztBjA-4" value="&lt;b&gt;Relay protection terminal&lt;/b&gt; (+special report for PEMS, PMD)" style="rounded=0;whiteSpace=wrap;html=1;" vertex="1" parent="1">
          <mxGeometry x="170" y="480" width="100" height="60" as="geometry" />
        </mxCell>
        <mxCell id="ATrKAvhcQLNvLvAztBjA-9" value="(3) High level signals (alert, info)" style="text;html=1;strokeColor=none;fillColor=none;align=center;verticalAlign=middle;whiteSpace=wrap;rounded=0;" vertex="1" parent="1">
          <mxGeometry x="270" y="340" width="130" height="30" as="geometry" />
        </mxCell>
        <mxCell id="ATrKAvhcQLNvLvAztBjA-10" value="(2) Non-electrical parameters (AirTemp, etc)" style="text;html=1;strokeColor=none;fillColor=none;align=center;verticalAlign=middle;whiteSpace=wrap;rounded=0;" vertex="1" parent="1">
          <mxGeometry x="270" y="410" width="130" height="30" as="geometry" />
        </mxCell>
        <mxCell id="ATrKAvhcQLNvLvAztBjA-11" value="61850-8-1" style="text;html=1;strokeColor=none;fillColor=none;align=center;verticalAlign=middle;whiteSpace=wrap;rounded=0;" vertex="1" parent="1">
          <mxGeometry x="150" y="440" width="70" height="30" as="geometry" />
        </mxCell>
        <mxCell id="ATrKAvhcQLNvLvAztBjA-15" value="PEMS&lt;br&gt;PMD" style="whiteSpace=wrap;html=1;aspect=fixed;" vertex="1" parent="1">
          <mxGeometry x="180" y="186" width="80" height="80" as="geometry" />
        </mxCell>
        <mxCell id="ATrKAvhcQLNvLvAztBjA-16" value="SCADA" style="whiteSpace=wrap;html=1;aspect=fixed;" vertex="1" parent="1">
          <mxGeometry x="410" y="186" width="80" height="80" as="geometry" />
        </mxCell>
        <mxCell id="ATrKAvhcQLNvLvAztBjA-17" value="(1)" style="text;html=1;strokeColor=none;fillColor=none;align=center;verticalAlign=middle;whiteSpace=wrap;rounded=0;" vertex="1" parent="1">
          <mxGeometry x="140" y="490" width="20" height="30" as="geometry" />
        </mxCell>
        <mxCell id="ATrKAvhcQLNvLvAztBjA-19" value="" style="rounded=0;whiteSpace=wrap;html=1;fillColor=none;" vertex="1" parent="1">
          <mxGeometry x="150" y="166" width="360" height="130" as="geometry" />
        </mxCell>
        <mxCell id="ATrKAvhcQLNvLvAztBjA-21" value="" style="ellipse;whiteSpace=wrap;html=1;fillColor=none;" vertex="1" parent="1">
          <mxGeometry x="270" y="650" width="330" height="190" as="geometry" />
        </mxCell>
        <mxCell id="ATrKAvhcQLNvLvAztBjA-22" value="Non-electrical parameters" style="ellipse;whiteSpace=wrap;html=1;fillColor=none;fontSize=8;" vertex="1" parent="1">
          <mxGeometry x="425" y="680" width="57.5" height="60" as="geometry" />
        </mxCell>
        <mxCell id="ATrKAvhcQLNvLvAztBjA-23" value="Alert and infor signal (PEMS, PMD self-monitoring + common signals)" style="ellipse;whiteSpace=wrap;html=1;fillColor=none;fontSize=8;" vertex="1" parent="1">
          <mxGeometry x="440" y="740" width="95" height="80" as="geometry" />
        </mxCell>
        <mxCell id="ATrKAvhcQLNvLvAztBjA-24" value="Primary equipment" style="ellipse;whiteSpace=wrap;html=1;fillColor=none;fontSize=8;" vertex="1" parent="1">
          <mxGeometry x="510" y="690" width="57.5" height="60" as="geometry" />
        </mxCell>
        <mxCell id="ATrKAvhcQLNvLvAztBjA-25" value="Relay protection" style="ellipse;whiteSpace=wrap;html=1;fillColor=none;fontSize=8;" vertex="1" parent="1">
          <mxGeometry x="306.25" y="700" width="57.5" height="60" as="geometry" />
        </mxCell>
        <mxCell id="ATrKAvhcQLNvLvAztBjA-26" value="Power equipment monitoring" style="ellipse;whiteSpace=wrap;html=1;fillColor=none;fontSize=8;" vertex="1" parent="1">
          <mxGeometry x="342.5" y="750" width="57.5" height="60" as="geometry" />
        </mxCell>
        <mxCell id="ATrKAvhcQLNvLvAztBjA-27" value="&lt;b&gt;PEMS, PMD&lt;/b&gt;" style="text;html=1;strokeColor=none;fillColor=none;align=center;verticalAlign=middle;whiteSpace=wrap;rounded=0;" vertex="1" parent="1">
          <mxGeometry x="370" y="650" width="70" height="30" as="geometry" />
        </mxCell>
        <mxCell id="ATrKAvhcQLNvLvAztBjA-28" value="" style="ellipse;whiteSpace=wrap;html=1;fillColor=none;" vertex="1" parent="1">
          <mxGeometry x="620" y="650" width="330" height="190" as="geometry" />
        </mxCell>
        <mxCell id="ATrKAvhcQLNvLvAztBjA-29" value="&lt;b&gt;SCADA&lt;/b&gt;" style="text;html=1;strokeColor=none;fillColor=none;align=center;verticalAlign=middle;whiteSpace=wrap;rounded=0;" vertex="1" parent="1">
          <mxGeometry x="750" y="660" width="70" height="30" as="geometry" />
        </mxCell>
        <mxCell id="ATrKAvhcQLNvLvAztBjA-30" value="Primary equipment" style="ellipse;whiteSpace=wrap;html=1;fillColor=none;fontSize=8;" vertex="1" parent="1">
          <mxGeometry x="660" y="680" width="57.5" height="60" as="geometry" />
        </mxCell>
        <mxCell id="ATrKAvhcQLNvLvAztBjA-31" value="Non-electrical parameters" style="ellipse;whiteSpace=wrap;html=1;fillColor=none;fontSize=8;" vertex="1" parent="1">
          <mxGeometry x="730" y="680" width="57.5" height="60" as="geometry" />
        </mxCell>
        <mxCell id="ATrKAvhcQLNvLvAztBjA-32" value="Alert and infor signal (PEMS, PMD self-monitoring + common signals)" style="ellipse;whiteSpace=wrap;html=1;fillColor=none;fontSize=8;" vertex="1" parent="1">
          <mxGeometry x="670" y="740" width="95" height="80" as="geometry" />
        </mxCell>
        <mxCell id="ATrKAvhcQLNvLvAztBjA-33" value="Other parameters (not needed by PEMS and PMD)" style="ellipse;whiteSpace=wrap;html=1;fillColor=none;fontSize=8;" vertex="1" parent="1">
          <mxGeometry x="830" y="715" width="57.5" height="60" as="geometry" />
        </mxCell>
        <mxCell id="ATrKAvhcQLNvLvAztBjA-35" value="" style="ellipse;whiteSpace=wrap;html=1;fillColor=none;" vertex="1" parent="1">
          <mxGeometry x="400" y="640" width="410" height="210" as="geometry" />
        </mxCell>
        <mxCell id="ATrKAvhcQLNvLvAztBjA-36" value="CIM converter" style="ellipse;whiteSpace=wrap;html=1;fillColor=none;" vertex="1" parent="1">
          <mxGeometry x="550" y="645" width="100" height="35" as="geometry" />
        </mxCell>
        <mxCell id="ATrKAvhcQLNvLvAztBjA-37" value="Dispatching center" style="text;html=1;strokeColor=none;fillColor=none;align=center;verticalAlign=middle;whiteSpace=wrap;rounded=0;fontStyle=1" vertex="1" parent="1">
          <mxGeometry x="270" y="170" width="130" height="30" as="geometry" />
        </mxCell>
        <mxCell id="ATrKAvhcQLNvLvAztBjA-39" value="" style="rounded=0;whiteSpace=wrap;html=1;fillColor=none;" vertex="1" parent="1">
          <mxGeometry x="120" y="315" width="420" height="235" as="geometry" />
        </mxCell>
        <mxCell id="ATrKAvhcQLNvLvAztBjA-40" value="Substation" style="text;html=1;strokeColor=none;fillColor=none;align=center;verticalAlign=middle;whiteSpace=wrap;rounded=0;fontStyle=1" vertex="1" parent="1">
          <mxGeometry x="400" y="510" width="130" height="30" as="geometry" />
        </mxCell>
      </root>
    </mxGraphModel>
  </diagram>
</mxfile>
